<svg id="Layer_1" data-name="Layer 1" xmlns="http://www.w3.org/2000/svg" viewBox="0 0 364.687 35.508"><defs><style>.cls-1{fill:#fff;}.cls-2{fill:#ffc222;}</style></defs><title>Artboard 1</title><path class="cls-1" d="M0,.961H3.586l12.4,30.187,6.469-15.4L16.5,1.2h3.164l4.805,12.094L29.32,1.2h3.211L26.578,15.75l6.539,15.4L45.445.961H49.1L34.641,35.039H31.664L24.516,18.188l-7.2,16.851H14.391Z"/><path class="cls-1" d="M48.422,22.489a13.209,13.209,0,0,1,.937-4.983,12.91,12.91,0,0,1,2.59-4.077,12.285,12.285,0,0,1,3.961-2.785,12.182,12.182,0,0,1,13.922,2.808,13.254,13.254,0,0,1,3.457,8.991V23.2a1.915,1.915,0,0,1-.047.524H51.8a10.448,10.448,0,0,0,2.988,6.7,9.08,9.08,0,0,0,2.86,1.955,8.533,8.533,0,0,0,3.433.7,8.656,8.656,0,0,0,2.391-.341,9.873,9.873,0,0,0,2.2-.919A8.166,8.166,0,0,0,67.5,30.385a5.961,5.961,0,0,0,1.242-1.861l2.836.777a8.593,8.593,0,0,1-1.64,2.509,11.415,11.415,0,0,1-5.508,3.254,13.761,13.761,0,0,1-3.516.444A12.026,12.026,0,0,1,55.9,34.479a12.246,12.246,0,0,1-3.944-2.816,13.045,13.045,0,0,1-2.6-4.137A13.538,13.538,0,0,1,48.422,22.489Zm3.328-1.208h18.4a9.955,9.955,0,0,0-.937-3.668,10.134,10.134,0,0,0-2.027-2.859,8.854,8.854,0,0,0-6.27-2.543,9.027,9.027,0,0,0-3.457.668,8.681,8.681,0,0,0-2.848,1.875,9.446,9.446,0,0,0-1.968,2.883A10.723,10.723,0,0,0,51.75,21.281Z"/><path class="cls-1" d="M78.328,35.039V0h3.258V15.258a14.238,14.238,0,0,1,4.031-4.1,9.689,9.689,0,0,1,5.461-1.547,10.062,10.062,0,0,1,4.754,1.1A11.161,11.161,0,0,1,99.4,13.652a13.78,13.78,0,0,1,2.271,4.172,14.659,14.659,0,0,1,.8,4.793,13.561,13.561,0,0,1-.918,4.992,13.115,13.115,0,0,1-2.506,4.09,11.894,11.894,0,0,1-3.788,2.778,10.935,10.935,0,0,1-4.7,1.031,10.426,10.426,0,0,1-5.449-1.477,10.756,10.756,0,0,1-3.855-3.843v4.851Zm3.258-8.555a5.32,5.32,0,0,0,1.031,2.426,8.734,8.734,0,0,0,2.016,1.957,10.4,10.4,0,0,0,2.543,1.3,7.907,7.907,0,0,0,2.613.48,8.416,8.416,0,0,0,3.773-.843,9.166,9.166,0,0,0,2.93-2.262A10.852,10.852,0,0,0,98.4,26.32a10.266,10.266,0,0,0,.692-3.7,11.332,11.332,0,0,0-.645-3.8,10.561,10.561,0,0,0-1.816-3.246A8.812,8.812,0,0,0,93.8,13.312a7.921,7.921,0,0,0-3.633-.843,7.619,7.619,0,0,0-2.777.5,9.309,9.309,0,0,0-2.4,1.371,11.316,11.316,0,0,0-1.968,1.992,11.671,11.671,0,0,0-1.43,2.391Z"/><path class="cls-2" d="M120.117,35.039V.961h12.395a18.464,18.464,0,0,1,7.324,1.348,15.233,15.233,0,0,1,5.27,3.644,14.931,14.931,0,0,1,3.181,5.391,20.318,20.318,0,0,1,1.057,6.609,19.764,19.764,0,0,1-1.186,7.031,14.848,14.848,0,0,1-8.7,8.836,18.833,18.833,0,0,1-6.948,1.219Zm6.61-5.812h5.765a10.317,10.317,0,0,0,4.336-.868A8.97,8.97,0,0,0,140,25.98a10.458,10.458,0,0,0,1.945-3.574,14.352,14.352,0,0,0,.668-4.453,14.627,14.627,0,0,0-.668-4.512,9.978,9.978,0,0,0-1.969-3.562,8.718,8.718,0,0,0-3.2-2.3,10.846,10.846,0,0,0-4.289-.809h-5.765Z"/><path class="cls-2" d="M152.109,27.658a7.13,7.13,0,0,1,.794-3.332,7.634,7.634,0,0,1,2.207-2.6,11.046,11.046,0,0,1,3.375-1.684,14.312,14.312,0,0,1,4.3-.616,18.312,18.312,0,0,1,3.3.293,13.05,13.05,0,0,1,2.855.832V19.112a4.973,4.973,0,0,0-1.422-3.8,5.939,5.939,0,0,0-4.216-1.338,11.163,11.163,0,0,0-3.921.709,17.876,17.876,0,0,0-3.921,2.1l-1.953-4.067a18.586,18.586,0,0,1,10.447-3.268q5.411,0,8.409,2.672t3,7.711v7.926a2.33,2.33,0,0,0,.353,1.459,1.6,1.6,0,0,0,1.147.5v5.331a14.661,14.661,0,0,1-2.789.32,4.443,4.443,0,0,1-2.812-.779,3.311,3.311,0,0,1-1.219-2.09l-.141-1.333a11.127,11.127,0,0,1-4.086,3.234,12.093,12.093,0,0,1-5.143,1.109,9.576,9.576,0,0,1-3.393-.591,8.233,8.233,0,0,1-2.729-1.655,7.6,7.6,0,0,1-1.8-2.49A7.5,7.5,0,0,1,152.109,27.658Zm6.047-.551a3.536,3.536,0,0,0,1.257,2.777,4.523,4.523,0,0,0,3.089,1.1,8.219,8.219,0,0,0,3.1-.586,5.657,5.657,0,0,0,2.279-1.567,2.385,2.385,0,0,0,1.057-1.867V24.02a16.7,16.7,0,0,0-2.5-.706,13.04,13.04,0,0,0-2.595-.275,6.832,6.832,0,0,0-4.088,1.149A3.466,3.466,0,0,0,158.156,27.107Z"/><path class="cls-2" d="M179.52,31.7l2.391-4.043a20.015,20.015,0,0,0,4.5,2.49,12.18,12.18,0,0,0,4.359.837,5.383,5.383,0,0,0,3.015-.731,2.351,2.351,0,0,0,1.1-2.077,2.09,2.09,0,0,0-1.286-1.983,25.768,25.768,0,0,0-4.206-1.439q-2.431-.684-4.178-1.31a10.554,10.554,0,0,1-2.809-1.427,4.922,4.922,0,0,1-1.545-1.841,5.817,5.817,0,0,1-.484-2.478,7.814,7.814,0,0,1,.741-3.448,7.434,7.434,0,0,1,2.093-2.607,9.937,9.937,0,0,1,3.165-1.66A12.712,12.712,0,0,1,190.3,9.4a16.887,16.887,0,0,1,5.3.812,12.932,12.932,0,0,1,4.529,2.622l-2.6,3.9a15.484,15.484,0,0,0-3.708-2.124,9.941,9.941,0,0,0-3.568-.684,5.146,5.146,0,0,0-2.735.673,2.363,2.363,0,0,0-1.1,2.182,2.126,2.126,0,0,0,.257,1.11,2.323,2.323,0,0,0,.841.767,8.528,8.528,0,0,0,1.508.66q.923.32,2.326.649,2.593.684,4.433,1.357a12.1,12.1,0,0,1,3.023,1.546,5.5,5.5,0,0,1,1.733,2.006,6.217,6.217,0,0,1,.551,2.738,6.9,6.9,0,0,1-2.74,5.789,11.912,11.912,0,0,1-7.445,2.109,19.819,19.819,0,0,1-6.2-.992A15.3,15.3,0,0,1,179.52,31.7Z"/><path class="cls-2" d="M205.218,35.039V0h6.422V14.555a9.737,9.737,0,0,1,3.774-3.774,10.582,10.582,0,0,1,5.25-1.336,8.283,8.283,0,0,1,3.984.844,6.373,6.373,0,0,1,2.414,2.238,9.052,9.052,0,0,1,1.195,3.164,19.936,19.936,0,0,1,.328,3.645v15.7h-6.421V20.93a7.146,7.146,0,0,0-1.1-4.395,3.717,3.717,0,0,0-3.117-1.418,4.893,4.893,0,0,0-1.828.387,7.294,7.294,0,0,0-1.828,1.078,8.833,8.833,0,0,0-1.582,1.652,6.893,6.893,0,0,0-1.067,2.11v14.7Z"/><path class="cls-2" d="M234.187,35.039V0h6.422V14.3a9.678,9.678,0,0,1,3.527-3.574,9.982,9.982,0,0,1,5.121-1.278,9.424,9.424,0,0,1,4.463,1.066,11.433,11.433,0,0,1,3.488,2.833,12.757,12.757,0,0,1,2.266,4.168,15.89,15.89,0,0,1,.8,5.047,14.2,14.2,0,0,1-.893,5.09,12.791,12.791,0,0,1-2.477,4.094,11.631,11.631,0,0,1-3.758,2.756,10.932,10.932,0,0,1-4.661,1.009,10.106,10.106,0,0,1-5.133-1.3,9.392,9.392,0,0,1-3.539-3.554v4.38Zm6.422-9.227a5.181,5.181,0,0,0,.984,1.719,7.309,7.309,0,0,0,3.246,2.177,5.9,5.9,0,0,0,1.864.315,6.741,6.741,0,0,0,2.847-.6,6.628,6.628,0,0,0,2.2-1.6,7.335,7.335,0,0,0,1.407-2.352,8.1,8.1,0,0,0,.5-2.867,8.955,8.955,0,0,0-.481-2.937,7.682,7.682,0,0,0-1.359-2.445,6.655,6.655,0,0,0-2.086-1.673,5.692,5.692,0,0,0-2.637-.62,5.905,5.905,0,0,0-3.867,1.416,9.388,9.388,0,0,0-2.625,3.474Z"/><path class="cls-2" d="M263.015,22.488a13.627,13.627,0,0,1,.913-4.988,12.516,12.516,0,0,1,2.623-4.132,12.686,12.686,0,0,1,4.145-2.857,13.663,13.663,0,0,1,5.526-1.066,13.524,13.524,0,0,1,5.5,1.066,12.807,12.807,0,0,1,4.136,2.857,12.478,12.478,0,0,1,2.632,4.144,13.921,13.921,0,0,1,0,9.938,12.8,12.8,0,0,1-2.6,4.152,12.137,12.137,0,0,1-4.136,2.85,14.976,14.976,0,0,1-11.048,0,12.329,12.329,0,0,1-6.78-7A13.636,13.636,0,0,1,263.015,22.488Zm6.61,0a8.762,8.762,0,0,0,.5,3.054,7.367,7.367,0,0,0,1.4,2.375,6.27,6.27,0,0,0,2.09,1.557,6.18,6.18,0,0,0,2.606.549,6.117,6.117,0,0,0,2.582-.549,6.26,6.26,0,0,0,2.09-1.557,7.341,7.341,0,0,0,1.4-2.4,8.985,8.985,0,0,0,.5-3.078,8.74,8.74,0,0,0-.5-3.018,7.371,7.371,0,0,0-1.4-2.387,6.26,6.26,0,0,0-2.09-1.557,6.117,6.117,0,0,0-2.582-.549,5.982,5.982,0,0,0-2.595.573,6.53,6.53,0,0,0-2.1,1.58,7.34,7.34,0,0,0-1.4,2.387A8.712,8.712,0,0,0,269.625,22.488Z"/><path class="cls-2" d="M291.96,27.658a7.13,7.13,0,0,1,.794-3.332,7.645,7.645,0,0,1,2.207-2.6,11.069,11.069,0,0,1,3.375-1.684,14.321,14.321,0,0,1,4.3-.616,18.34,18.34,0,0,1,3.3.293,13.057,13.057,0,0,1,2.854.832V19.112a4.976,4.976,0,0,0-1.421-3.8,5.944,5.944,0,0,0-4.216-1.338,11.165,11.165,0,0,0-3.922.709,17.876,17.876,0,0,0-3.921,2.1l-1.953-4.067A18.583,18.583,0,0,1,303.8,9.445q5.411,0,8.409,2.672t3,7.711v7.926a2.33,2.33,0,0,0,.353,1.459,1.6,1.6,0,0,0,1.147.5v5.331a14.661,14.661,0,0,1-2.789.32,4.443,4.443,0,0,1-2.812-.779,3.311,3.311,0,0,1-1.219-2.09l-.14-1.333a11.135,11.135,0,0,1-4.086,3.234,12.1,12.1,0,0,1-5.143,1.109,9.587,9.587,0,0,1-3.4-.591,8.239,8.239,0,0,1-2.728-1.655,7.6,7.6,0,0,1-1.8-2.49A7.486,7.486,0,0,1,291.96,27.658Zm6.047-.551a3.536,3.536,0,0,0,1.257,2.777,4.525,4.525,0,0,0,3.089,1.1,8.219,8.219,0,0,0,3.1-.586,5.664,5.664,0,0,0,2.279-1.567,2.385,2.385,0,0,0,1.057-1.867V24.02a16.7,16.7,0,0,0-2.5-.706,13.04,13.04,0,0,0-2.595-.275,6.832,6.832,0,0,0-4.088,1.149A3.469,3.469,0,0,0,298.007,27.107Z"/><path class="cls-2" d="M321.234,35.039V9.891h5.906v5.3a11.939,11.939,0,0,1,1.582-2.292,12.143,12.143,0,0,1,1.957-1.783,8.694,8.694,0,0,1,2.145-1.158,6.174,6.174,0,0,1,2.1-.394h.8a2.6,2.6,0,0,1,.492.046v5.767a12.568,12.568,0,0,0-5.238,1.141,6.659,6.659,0,0,0-3.316,3.257V35.039Z"/><path class="cls-2" d="M337.007,22.441a14.847,14.847,0,0,1,.847-5.081,13.47,13.47,0,0,1,2.34-4.121,10.731,10.731,0,0,1,3.563-2.787A10.241,10.241,0,0,1,348.3,9.445a9.465,9.465,0,0,1,5.006,1.348,9.718,9.718,0,0,1,3.463,3.5V0h6.422V27.635a2.341,2.341,0,0,0,.333,1.428,1.586,1.586,0,0,0,1.167.493v5.482a15.223,15.223,0,0,1-2.76.329,4.443,4.443,0,0,1-2.824-.859,3.163,3.163,0,0,1-1.236-2.272l-.141-1.577a9.05,9.05,0,0,1-3.756,3.625A10.716,10.716,0,0,1,349,35.508a11.4,11.4,0,0,1-8.618-3.789,12.987,12.987,0,0,1-2.479-4.152A14.463,14.463,0,0,1,337.007,22.441Zm6.727.164a7.914,7.914,0,0,0,.526,2.925,7.6,7.6,0,0,0,1.439,2.341,6.558,6.558,0,0,0,2.176,1.579,6.7,6.7,0,0,0,2.807.573,5.977,5.977,0,0,0,1.872-.315,6.586,6.586,0,0,0,1.766-.89,8.135,8.135,0,0,0,1.463-1.334,5.293,5.293,0,0,0,.982-1.672V19.82a6.806,6.806,0,0,0-1.076-1.942,8.2,8.2,0,0,0-3.439-2.562,5.293,5.293,0,0,0-1.942-.386,5.811,5.811,0,0,0-2.655.62,6.283,6.283,0,0,0-2.094,1.7,8.123,8.123,0,0,0-1.346,2.468A8.836,8.836,0,0,0,343.734,22.605Z"/></svg>